<svg width="185" height="68" viewBox="0 0 185 68" fill="none" xmlns="http://www.w3.org/2000/svg">
<path d="M11.8793 67.9966C11.4012 67.9966 10.9348 67.9897 10.4605 67.9776C9.47808 67.9632 8.49794 67.8663 7.52812 67.6878C6.62382 67.5113 5.7478 67.183 4.92896 66.7137C4.11759 66.2483 3.37757 65.6381 2.73723 64.9065C2.08757 64.1835 1.54669 63.3449 1.13603 62.4239C0.720885 61.497 0.433582 60.5035 0.284124 59.478C0.122777 58.376 0.0355058 57.2617 0.0230626 56.1448C0.0130217 55.7699 0 54.5218 0 54.5218V13.456C0 13.456 0.0138062 12.2269 0.0230626 11.8657C0.0350166 10.7506 0.121817 9.63808 0.282712 8.53787C0.432464 7.50951 0.720011 6.51311 1.1354 5.58317C1.54448 4.66287 2.08229 3.82362 2.72797 3.09797C3.37297 2.36543 4.11539 1.75208 4.92817 1.28029C5.74515 0.812576 6.61953 0.486642 7.522 0.313406C8.49502 0.133185 9.47858 0.0357913 10.4644 0.0220432L11.88 0H173.112L174.544 0.0225766C175.521 0.0357275 176.496 0.132352 177.46 0.311628C178.372 0.487086 179.255 0.815349 180.082 1.28562C181.71 2.23639 183.035 3.74061 183.87 5.58744C184.279 6.51101 184.562 7.49932 184.71 8.51884C184.873 9.62806 184.964 10.7493 184.983 11.8735C184.987 12.377 184.987 12.9177 184.987 13.456C185 14.1226 185 14.7571 185 15.3969V52.6013C185 53.2472 185 53.8774 184.987 54.5127C184.987 55.0908 184.987 55.6204 184.981 56.1654C184.963 57.2697 184.873 58.3709 184.713 59.4604C184.567 60.4933 184.281 61.4946 183.866 62.4291C183.452 63.34 182.915 64.1713 182.273 64.8924C181.632 65.628 180.89 66.2418 180.077 66.7101C179.253 67.183 178.371 67.5125 177.46 67.6875C176.49 67.867 175.51 67.9639 174.528 67.9774C174.058 67.9899 173.589 67.9962 173.12 67.9964L171.419 68L11.8793 67.9966Z" fill="black"/>
<path d="M43.916 32.6316C43.9312 31.4615 44.2446 30.3143 44.827 29.2966C45.4094 28.2789 46.2418 27.4239 47.2469 26.811C46.6084 25.9066 45.766 25.1623 44.7868 24.6372C43.8075 24.1121 42.7182 23.8207 41.6055 23.7862C39.2318 23.539 36.9308 25.1948 35.7211 25.1948C34.4883 25.1948 32.626 23.8107 30.6207 23.8516C29.3236 23.8932 28.0594 24.2672 26.9514 24.9374C25.8433 25.6076 24.9292 26.551 24.2981 27.6757C21.5644 32.3699 23.6035 39.2685 26.2223 43.0628C27.5325 44.9209 29.0636 46.9962 31.0672 46.9226C33.0277 46.842 33.7599 45.6826 36.1267 45.6826C38.4714 45.6826 39.1583 46.9226 41.2025 46.8758C43.3064 46.842 44.6318 45.0096 45.896 43.134C46.8374 41.8102 47.5617 40.347 48.0423 38.7987C46.82 38.286 45.777 37.4278 45.0432 36.3311C44.3095 35.2344 43.9174 33.9478 43.916 32.6316ZM40.0549 21.2907C41.202 19.925 41.7671 18.1696 41.6303 16.3973C39.8778 16.5798 38.2589 17.4105 37.0963 18.7238C36.5279 19.3654 36.0926 20.1119 35.8152 20.9204C35.5378 21.729 35.4238 22.5838 35.4797 23.4361C36.3563 23.4451 37.2235 23.2566 38.016 22.885C38.8085 22.5134 39.5056 21.9683 40.0549 21.2907ZM68.6994 42.219H62.0087L60.402 46.9243H57.568L63.9054 29.5158H66.8497L73.1869 46.9243H70.3047L68.6994 42.219ZM62.7016 40.0477H68.0051L65.3907 32.4114H65.3175L62.7016 40.0477ZM86.8732 40.579C86.8732 44.523 84.7447 47.057 81.5326 47.057C80.7189 47.0993 79.9097 46.9134 79.1976 46.5207C78.4854 46.128 77.8992 45.5443 77.506 44.8365H77.4452V51.123H74.8184V34.2321H77.3611V36.3432H77.4095C77.8207 35.6388 78.4168 35.0582 79.1344 34.663C79.8519 34.2679 80.664 34.0731 81.4843 34.0994C84.7322 34.0994 86.8732 36.6457 86.8732 40.5788V40.579ZM84.1732 40.579C84.1732 38.0093 82.8343 36.3199 80.7914 36.3199C78.7842 36.3199 77.4343 38.0448 77.4343 40.5788C77.4343 43.1363 78.7842 44.8489 80.7914 44.8489C82.8343 44.8489 84.1732 43.1719 84.1732 40.5788V40.579ZM100.958 40.579C100.958 44.523 98.83 47.057 95.6178 47.057C94.8041 47.0993 93.9949 46.9134 93.2828 46.5206C92.5707 46.1279 91.9845 45.5443 91.5913 44.8365H91.5306V51.123H88.9037V34.2321H91.4463V36.3432H91.4947C91.9059 35.6388 92.502 35.0582 93.2196 34.663C93.9371 34.2679 94.7492 34.0731 95.5695 34.0994C98.8176 34.0994 100.958 36.6457 100.958 40.5788V40.579ZM98.2585 40.579C98.2585 38.0093 96.9195 36.3199 94.8766 36.3199C92.8694 36.3199 91.5195 38.0448 91.5195 40.5788C91.5195 43.1363 92.8694 44.8489 94.8766 44.8489C96.9195 44.8489 98.2585 43.1719 98.2585 40.5788V40.579ZM110.268 42.0739C110.462 43.8002 112.153 44.9338 114.464 44.9338C116.678 44.9338 118.271 43.8002 118.271 42.2436C118.271 40.8923 117.31 40.0833 115.036 39.5288L112.761 38.9853C109.537 38.2132 108.041 36.7182 108.041 34.2923C108.041 31.2886 110.68 29.2256 114.428 29.2256C118.137 29.2256 120.68 31.2886 120.765 34.2923H118.114C117.955 32.555 116.507 31.5063 114.391 31.5063C112.275 31.5063 110.827 32.5674 110.827 34.1116C110.827 35.3424 111.752 36.0666 114.014 36.6209L115.948 37.0919C119.549 37.9366 121.046 39.3714 121.046 41.9176C121.046 45.1746 118.43 47.2145 114.269 47.2145C110.377 47.2145 107.748 45.2224 107.579 42.0738L110.268 42.0739ZM126.715 31.2286V34.2321H129.148V36.2953H126.715V43.2923C126.715 44.3793 127.202 44.8858 128.272 44.8858C128.561 44.8808 128.849 44.8607 129.136 44.8255V46.8765C128.655 46.9655 128.166 47.0058 127.677 46.9968C125.086 46.9968 124.075 46.0317 124.075 43.5702V36.2953H122.215V34.2321H124.075V31.2286H126.715ZM130.558 40.579C130.558 36.5854 132.929 34.0761 136.627 34.0761C140.338 34.0761 142.698 36.5854 142.698 40.579C142.698 44.5833 140.35 47.0817 136.627 47.0817C132.906 47.0817 130.558 44.5833 130.558 40.579ZM140.021 40.579C140.021 37.8396 138.756 36.2226 136.627 36.2226C134.499 36.2226 133.234 37.8518 133.234 40.579C133.234 43.3293 134.499 44.9338 136.627 44.9338C138.756 44.9338 140.021 43.3293 140.021 40.579ZM144.864 34.2321H147.369V36.3924H147.43C147.599 35.7177 147.998 35.1214 148.559 34.7038C149.119 34.2863 149.808 34.0728 150.508 34.0994C150.811 34.0983 151.113 34.1309 151.408 34.1965V36.6334C151.026 36.5176 150.627 36.4644 150.228 36.476C149.846 36.4606 149.466 36.5273 149.113 36.6716C148.76 36.8158 148.442 37.0341 148.182 37.3115C147.922 37.5889 147.726 37.9189 147.606 38.2787C147.487 38.6385 147.447 39.0197 147.491 39.3961V46.9243H144.864V34.2321ZM163.519 43.1964C163.166 45.5005 160.904 47.0817 158.009 47.0817C154.286 47.0817 151.975 44.608 151.975 40.6391C151.975 36.6581 154.299 34.0761 157.898 34.0761C161.439 34.0761 163.666 36.4883 163.666 40.3366V41.2292H154.627V41.3866C154.585 41.8537 154.644 42.3243 154.8 42.767C154.956 43.2098 155.205 43.6147 155.53 43.9547C155.856 44.2947 156.251 44.5621 156.689 44.7392C157.126 44.9163 157.597 44.9989 158.07 44.9817C158.69 45.0394 159.313 44.8968 159.846 44.5752C160.378 44.2535 160.792 43.7699 161.025 43.1964H163.519ZM154.64 39.4084H161.037C161.061 38.9884 160.997 38.5681 160.849 38.1739C160.701 37.7796 160.472 37.42 160.178 37.1175C159.883 36.815 159.528 36.5762 159.136 36.4161C158.744 36.256 158.323 36.178 157.898 36.187C157.471 36.1845 157.047 36.266 156.651 36.4269C156.255 36.5878 155.895 36.8248 155.592 37.1243C155.289 37.4238 155.049 37.7798 154.886 38.1718C154.722 38.5639 154.638 38.9841 154.64 39.4084ZM62.3724 16.4123C62.9232 16.3731 63.4758 16.4556 63.9905 16.6539C64.5052 16.8521 64.969 17.1612 65.3487 17.5589C65.7283 17.9565 66.0143 18.4327 66.1859 18.9532C66.3574 19.4737 66.4104 20.0255 66.341 20.5687C66.341 23.241 64.8846 24.7772 62.3724 24.7772H59.3259V16.4122L62.3724 16.4123ZM60.636 23.5941H62.2261C62.6197 23.6174 63.0135 23.5534 63.3789 23.4067C63.7443 23.2601 64.0722 23.0344 64.3386 22.7463C64.605 22.4581 64.8033 22.1146 64.919 21.7409C65.0347 21.3671 65.0649 20.9725 65.0075 20.5857C65.0608 20.2004 65.0275 19.8082 64.91 19.4372C64.7925 19.0662 64.5938 18.7255 64.3279 18.4396C64.0621 18.1537 63.7358 17.9297 63.3725 17.7836C63.0091 17.6374 62.6176 17.5728 62.2261 17.5944H60.636V23.5941ZM67.8208 21.618C67.7807 21.2032 67.8286 20.7846 67.9612 20.3892C68.0938 19.9938 68.3083 19.6302 68.591 19.3218C68.8736 19.0134 69.2181 18.767 69.6023 18.5984C69.9866 18.4298 70.4021 18.3427 70.8223 18.3427C71.2425 18.3427 71.6581 18.4298 72.0423 18.5984C72.4266 18.767 72.771 19.0134 73.0537 19.3218C73.3363 19.6302 73.5508 19.9938 73.6834 20.3892C73.8161 20.7846 73.8639 21.2032 73.8239 21.618C73.8648 22.0333 73.8176 22.4526 73.6853 22.8487C73.5531 23.2449 73.3387 23.6092 73.056 23.9183C72.7733 24.2274 72.4286 24.4744 72.0439 24.6434C71.6592 24.8124 71.2431 24.8998 70.8223 24.8998C70.4015 24.8998 69.9854 24.8124 69.6007 24.6434C69.216 24.4744 68.8713 24.2274 68.5886 23.9183C68.3059 23.6092 68.0915 23.2449 67.9593 22.8487C67.827 22.4526 67.7799 22.0333 67.8208 21.618ZM72.5319 21.618C72.5319 20.2496 71.9121 19.4495 70.8244 19.4495C69.7325 19.4495 69.1183 20.2496 69.1183 21.618C69.1183 22.9973 69.7326 23.7914 70.8244 23.7914C71.9121 23.7914 72.5319 22.9919 72.5319 21.618ZM81.8039 24.777H80.5006L79.1852 20.1278H79.0859L77.776 24.777H76.4853L74.7309 18.4644H76.0049L77.1452 23.2812H77.239L78.5476 18.4644H79.7526L81.0612 23.2812H81.1606L82.2952 18.4644H83.5514L81.8039 24.777ZM85.0269 18.4645H86.2362V19.4673H86.33C86.4893 19.1071 86.7578 18.8051 87.0983 18.6035C87.4388 18.4019 87.8342 18.3107 88.2295 18.3425C88.5392 18.3195 88.8502 18.3658 89.1393 18.4781C89.4285 18.5903 89.6886 18.7657 89.9001 18.9912C90.1117 19.2167 90.2694 19.4865 90.3616 19.7806C90.4538 20.0748 90.478 20.3857 90.4326 20.6904V24.7769H89.1764V21.0033C89.1764 19.9889 88.7318 19.4844 87.8029 19.4844C87.5926 19.4747 87.3827 19.5102 87.1876 19.5884C86.9925 19.6667 86.8167 19.7859 86.6724 19.9378C86.528 20.0898 86.4185 20.2709 86.3513 20.4687C86.2841 20.6665 86.2609 20.8765 86.2831 21.084V24.777H85.0269V18.4645ZM92.4341 16.0001H93.6901V24.777H92.4341V16.0001ZM95.4363 21.618C95.3963 21.2031 95.4442 20.7845 95.5768 20.389C95.7095 19.9935 95.924 19.6299 96.2066 19.3215C96.4893 19.0131 96.8338 18.7666 97.2181 18.598C97.6025 18.4293 98.0181 18.3422 98.4383 18.3422C98.8586 18.3422 99.2742 18.4293 99.6585 18.598C100.043 18.7666 100.387 19.0131 100.67 19.3215C100.953 19.6299 101.167 19.9935 101.3 20.389C101.432 20.7845 101.48 21.2031 101.44 21.618C101.481 22.0333 101.434 22.4524 101.301 22.8484C101.169 23.2445 100.954 23.6086 100.672 23.9176C100.389 24.2266 100.044 24.4734 99.6597 24.6424C99.275 24.8113 98.859 24.8986 98.4383 24.8986C98.0176 24.8986 97.6016 24.8113 97.217 24.6424C96.8323 24.4734 96.4876 24.2266 96.2049 23.9176C95.9221 23.6086 95.7077 23.2445 95.5754 22.8484C95.443 22.4524 95.3957 22.0333 95.4363 21.618ZM100.148 21.618C100.148 20.2496 99.5277 19.4495 98.44 19.4495C97.3481 19.4495 96.7339 20.2496 96.7339 21.618C96.7339 22.9973 97.3482 23.7914 98.44 23.7914C99.5277 23.7914 100.148 22.9919 100.148 21.618ZM102.763 22.9919C102.763 21.8555 103.616 21.2004 105.13 21.1073L106.854 21.0088V20.4639C106.854 19.7971 106.41 19.4207 105.551 19.4207C104.85 19.4207 104.364 19.676 104.224 20.1224H103.008C103.137 19.038 104.165 18.3427 105.609 18.3427C107.205 18.3427 108.105 19.1305 108.105 20.4639V24.777H106.895V23.8899H106.796C106.594 24.2081 106.311 24.4675 105.975 24.6416C105.639 24.8158 105.263 24.8984 104.884 24.881C104.617 24.9086 104.347 24.8803 104.092 24.798C103.836 24.7157 103.601 24.5813 103.401 24.4033C103.201 24.2253 103.041 24.0077 102.931 23.7646C102.821 23.5215 102.764 23.2583 102.763 22.9919ZM106.854 22.4524V21.9246L105.3 22.0232C104.423 22.0813 104.026 22.3771 104.026 22.9335C104.026 23.5017 104.523 23.8324 105.206 23.8324C105.406 23.8525 105.608 23.8325 105.801 23.7735C105.993 23.7145 106.171 23.6177 106.325 23.489C106.479 23.3602 106.605 23.2021 106.696 23.024C106.787 22.8459 106.84 22.6516 106.854 22.4524ZM109.756 21.618C109.756 19.6233 110.789 18.3598 112.398 18.3598C112.795 18.3416 113.19 18.4361 113.536 18.6322C113.881 18.8283 114.164 19.118 114.349 19.4673H114.443V16H115.699V24.7769H114.496V23.7794H114.396C114.196 24.1264 113.904 24.4124 113.552 24.6066C113.2 24.8007 112.8 24.8956 112.398 24.8809C110.778 24.8809 109.756 23.6172 109.756 21.6179V21.618ZM111.053 21.618C111.053 22.9568 111.69 23.7626 112.754 23.7626C113.812 23.7626 114.467 22.9453 114.467 21.6233C114.467 20.3078 113.806 19.4789 112.754 19.4789C111.696 19.4789 111.053 20.29 111.053 21.618ZM120.896 21.618C120.856 21.2032 120.904 20.7846 121.037 20.3892C121.17 19.9938 121.384 19.6302 121.667 19.3218C121.949 19.0134 122.294 18.767 122.678 18.5984C123.062 18.4298 123.478 18.3427 123.898 18.3427C124.318 18.3427 124.734 18.4298 125.118 18.5984C125.502 18.767 125.847 19.0134 126.129 19.3218C126.412 19.6302 126.627 19.9938 126.759 20.3892C126.892 20.7846 126.94 21.2032 126.9 21.618C126.94 22.0333 126.893 22.4526 126.761 22.8487C126.629 23.2449 126.414 23.6092 126.132 23.9183C125.849 24.2274 125.504 24.4744 125.12 24.6434C124.735 24.8124 124.319 24.8998 123.898 24.8998C123.477 24.8998 123.061 24.8124 122.676 24.6434C122.292 24.4744 121.947 24.2274 121.664 23.9183C121.382 23.6092 121.167 23.2449 121.035 22.8487C120.903 22.4526 120.856 22.0333 120.896 21.618ZM125.608 21.618C125.608 20.2496 124.988 19.4495 123.9 19.4495C122.808 19.4495 122.194 20.2496 122.194 21.618C122.194 22.9973 122.808 23.7914 123.9 23.7914C124.988 23.7914 125.608 22.9919 125.608 21.618ZM128.585 18.4645H129.794V19.4673H129.888C130.047 19.1071 130.316 18.8051 130.656 18.6035C130.997 18.4019 131.392 18.3107 131.788 18.3425C132.097 18.3195 132.408 18.3658 132.697 18.4781C132.987 18.5903 133.247 18.7657 133.458 18.9912C133.67 19.2167 133.828 19.4865 133.92 19.7806C134.012 20.0748 134.036 20.3857 133.991 20.6904V24.7769H132.734V21.0033C132.734 19.9889 132.29 19.4844 131.361 19.4844C131.151 19.4747 130.941 19.5102 130.746 19.5884C130.551 19.6667 130.375 19.7859 130.23 19.9378C130.086 20.0898 129.977 20.2709 129.909 20.4687C129.842 20.6665 129.819 20.8765 129.841 21.084V24.777H128.585L128.585 18.4645ZM141.089 16.8929V18.4932H142.468V19.5425H141.089V22.7884C141.089 23.4497 141.363 23.7393 141.988 23.7393C142.149 23.7388 142.308 23.7291 142.467 23.7105V24.7483C142.242 24.7883 142.013 24.8096 141.784 24.8119C140.387 24.8119 139.831 24.3245 139.831 23.1075V19.5425H138.821V18.4931H139.831V16.893L141.089 16.8929ZM144.183 16.0001H145.428V19.4789H145.528C145.695 19.1153 145.971 18.8117 146.318 18.6093C146.665 18.4069 147.067 18.3157 147.468 18.348C147.777 18.3314 148.085 18.3824 148.371 18.4974C148.656 18.6124 148.913 18.7886 149.123 19.0134C149.332 19.2382 149.489 19.506 149.582 19.7978C149.675 20.0896 149.702 20.3982 149.661 20.7015V24.777H148.403V21.0088C148.403 20.0004 147.93 19.4898 147.042 19.4898C146.826 19.4723 146.609 19.5017 146.406 19.5761C146.203 19.6505 146.018 19.768 145.866 19.9204C145.713 20.0729 145.596 20.2565 145.522 20.4586C145.448 20.6607 145.42 20.8762 145.439 21.0902V24.777H144.183V16.0001ZM156.985 23.0725C156.814 23.6494 156.444 24.1485 155.94 24.4824C155.436 24.8162 154.83 24.9637 154.227 24.8988C153.807 24.9098 153.391 24.8302 153.006 24.6654C152.62 24.5007 152.276 24.2547 151.996 23.9447C151.716 23.6347 151.508 23.2681 151.386 22.8702C151.263 22.4723 151.229 22.0527 151.287 21.6406C151.231 21.2272 151.265 20.8067 151.387 20.4076C151.51 20.0085 151.717 19.6401 151.995 19.3274C152.273 19.0147 152.616 18.7649 153 18.595C153.384 18.425 153.801 18.339 154.221 18.3425C155.992 18.3425 157.061 19.5425 157.061 21.5248V21.9595H152.566V22.0293C152.547 22.261 152.576 22.4942 152.652 22.7139C152.729 22.9336 152.851 23.1351 153.01 23.3054C153.17 23.4756 153.364 23.6109 153.579 23.7026C153.795 23.7943 154.027 23.8403 154.261 23.8378C154.562 23.8735 154.866 23.8199 155.136 23.6836C155.405 23.5473 155.628 23.3346 155.776 23.0725H156.985ZM152.566 21.0382H155.781C155.797 20.8263 155.768 20.6135 155.696 20.4135C155.624 20.2134 155.51 20.0305 155.363 19.8765C155.215 19.7225 155.037 19.6008 154.839 19.5192C154.641 19.4377 154.429 19.3981 154.214 19.4029C153.997 19.4002 153.782 19.4407 153.58 19.5219C153.379 19.6031 153.196 19.7235 153.043 19.8759C152.889 20.0283 152.768 20.2096 152.686 20.4093C152.604 20.6089 152.563 20.8227 152.566 21.0382Z" fill="white"/>
</svg>
