<svg width="185" height="67" viewBox="0 0 185 67" fill="none" xmlns="http://www.w3.org/2000/svg">
<path d="M178.217 67H6.78359C3.05279 67 0.000244141 63.2313 0.000244141 58.625V8.37504C0.000244141 3.76874 3.05273 0 6.78359 0H178.217C181.948 0 185 3.76874 185 8.37504V58.625C185 63.2313 181.948 67 178.217 67Z" fill="black"/>
<path d="M70.0981 21.2702C70.0981 22.2991 69.8257 23.1184 69.2804 23.7296C68.6609 24.4564 67.8535 24.8201 66.861 24.8201C65.9105 24.8201 65.1023 24.4517 64.4377 23.7138C63.772 22.9765 63.4397 22.0622 63.4397 20.9713C63.4397 19.88 63.772 18.9662 64.4377 18.2283C65.1023 17.491 65.9105 17.1221 66.861 17.1221C67.3326 17.1221 67.7841 17.2253 68.2128 17.4311C68.6415 17.6374 68.9854 17.9113 69.2427 18.2542L68.6638 18.9023C68.2279 18.3195 67.6276 18.0283 66.861 18.0283C66.1678 18.0283 65.5684 18.3008 65.0625 18.8462C64.5565 19.3922 64.3036 20.1002 64.3036 20.9713C64.3036 21.8425 64.5565 22.5505 65.0625 23.0965C65.5684 23.6419 66.1677 23.9144 66.861 23.9144C67.5963 23.9144 68.2094 23.6404 68.7003 23.0917C69.0189 22.7342 69.2032 22.2373 69.2525 21.5992H66.8609V20.7142H70.0521C70.0829 20.9066 70.098 21.0913 70.098 21.2702" fill="white"/>
<path d="M70.0984 21.271H69.9886C69.9877 22.2764 69.7253 23.0573 69.203 23.6436L69.2019 23.6445L69.2014 23.6455C68.6016 24.3472 67.8306 24.6965 66.8612 24.698C65.9361 24.6965 65.1618 24.3434 64.5152 23.6277C63.87 22.9105 63.551 22.035 63.5497 20.972C63.551 19.9086 63.87 19.0335 64.5152 18.3169C65.1618 17.6007 65.9361 17.2471 66.8612 17.2456C67.3187 17.2456 67.7543 17.3455 68.1698 17.5445C68.5856 17.7451 68.9141 18.0079 69.1589 18.3342L69.2429 18.255L69.1654 18.1681L68.5865 18.8166L68.6641 18.903L68.7486 18.8244C68.2923 18.2127 67.6519 17.9044 66.8613 17.9062C66.1423 17.9052 65.5099 18.1926 64.9868 18.7587C64.4586 19.3267 64.1933 20.0745 64.1942 20.972C64.1933 21.8696 64.4586 22.6174 64.9868 23.1854C65.5099 23.7515 66.1423 24.0389 66.8612 24.0379C67.6209 24.0394 68.2684 23.751 68.7782 23.1792C69.1186 22.7973 69.3116 22.2683 69.3622 21.6105L69.3724 21.4772H66.971V20.8377H70.0524V20.7149L69.9443 20.7365C69.9744 20.9227 69.9885 21.0997 69.9885 21.271H70.2081C70.2081 21.0843 70.1926 20.8925 70.1604 20.6929L70.1442 20.5921H66.7515V21.7228H69.2528V21.6L69.1435 21.5894C69.0951 22.2074 68.9192 22.6727 68.623 23.0056C68.1514 23.5313 67.5726 23.7908 66.8613 23.7923C66.1938 23.7913 65.6274 23.5342 65.1391 23.0089C64.6555 22.4855 64.4149 21.8173 64.4137 20.972C64.4149 20.1268 64.6555 19.4586 65.1391 18.9352C65.6274 18.4099 66.1937 18.1528 66.8613 18.1518C67.6035 18.1538 68.1639 18.4281 68.5802 18.9822L68.6574 19.0849L69.3206 18.3418L69.3918 18.2622L69.327 18.1762C69.0573 17.8166 68.698 17.5311 68.2564 17.3191C67.814 17.1065 67.3471 17 66.8613 17C65.8855 16.9991 65.0435 17.3828 64.3605 18.1423C63.6749 18.9002 63.3294 19.8529 63.3303 20.972C63.3294 22.0907 63.6749 23.0439 64.3609 23.8023C65.0435 24.5613 65.8855 24.9446 66.8613 24.9436C67.8774 24.9446 68.7204 24.567 69.36 23.8153L69.2806 23.7304L69.3583 23.8172C69.9268 23.1816 70.2089 22.3229 70.2081 21.271H70.0983H70.0984ZM75.1574 18.1931H72.1584V20.5294H74.8629V21.4147H72.1584V23.751H75.1574V24.6562H71.3129V17.2879H75.1574V18.1931Z" fill="white"/>
<path d="M75.1576 18.1911V18.0683H72.0488V20.6502H74.7533V21.2896L72.0488 21.2899V23.8718H75.0478V24.5314H71.4229V17.4087H75.0478V18.1911H75.1576V18.0683V18.1911H75.2673V17.1631H71.2034V24.777H75.2673V23.6262H72.2683V21.5355H74.9729V20.4046H72.2683V18.3139H75.2673V18.1911H75.1576ZM78.726 24.6543H77.8792V18.191H76.0399V17.2858H80.5653V18.191H78.726V24.6542" fill="white"/>
<path d="M78.7257 24.6543V24.5314H77.9887V18.0683H76.1494V17.4087H80.4553V18.0683H78.616V24.6542H78.7257V24.5314V24.6542H78.8355V18.3139H80.6748V17.1631H75.9299V18.3138H77.7692V24.777H78.8355V24.6542H78.7257V24.6543ZM83.8393 24.6543V17.2858H84.6852V24.6542H83.8393" fill="white"/>
<path d="M83.8395 24.6543H83.9493V17.4087H84.5756V24.5314H83.8395V24.6542H83.9493H83.8395V24.777H84.7951V17.1631H83.7297V24.777H83.8395V24.6542V24.6543ZM88.4389 24.6543H87.5922V18.191H85.753V17.2858H90.2783V18.191H88.4389V24.6542" fill="white"/>
<path d="M88.4395 24.6555V24.5327H87.7025V18.0695H85.8633V17.41H90.1691V18.0695H88.3298V24.6555H88.4395V24.5327V24.6555H88.5493V18.3152H90.3886V17.1643H85.6438V18.3151H87.483V24.7782H88.5493V24.6554H88.4395V24.6555ZM94.6417 23.0864C95.1291 23.6385 95.7256 23.9143 96.4308 23.9143C97.1361 23.9143 97.7329 23.6385 98.2195 23.0864C98.7074 22.5343 98.9518 21.8285 98.9518 20.9713C98.9518 20.1142 98.7074 19.4084 98.2195 18.8563C97.7329 18.3041 97.1361 18.0283 96.4308 18.0283C95.7256 18.0283 95.1291 18.3041 94.6417 18.8563C94.155 19.4084 93.9107 20.1141 93.9107 20.9713C93.9107 21.8285 94.155 22.5343 94.6417 23.0864ZM98.8455 23.7033C98.198 24.4482 97.3929 24.8201 96.4308 24.8201C95.4678 24.8201 94.663 24.4482 94.017 23.7033C93.3692 22.9592 93.0468 22.0483 93.0468 20.9713C93.0468 19.8943 93.3692 18.9833 94.017 18.2394C94.6631 17.4943 95.4678 17.1221 96.4308 17.1221C97.3878 17.1221 98.1908 17.4963 98.8412 18.2442C99.4907 18.992 99.8157 19.901 99.8157 20.9713C99.8157 22.0483 99.4915 22.9592 98.8455 23.7033Z" fill="white"/>
<path d="M94.6414 23.0872L94.5634 23.1735C95.0689 23.7477 95.6996 24.0394 96.4306 24.0379C97.1611 24.0394 97.7926 23.7477 98.2973 23.1735C98.8062 22.5987 99.0621 21.8552 99.0613 20.972C99.062 20.089 98.8062 19.3454 98.2973 18.7706C97.7926 18.1964 97.1611 17.9048 96.4306 17.9062C95.6996 17.9048 95.0689 18.1964 94.5634 18.7706C94.0557 19.3454 93.7993 20.089 93.8007 20.972C93.7993 21.8551 94.0557 22.5987 94.5634 23.1735L94.6414 23.0872L94.7195 23.0008C94.2539 22.4707 94.0211 21.8038 94.0202 20.972C94.0211 20.1403 94.2539 19.4735 94.7194 18.9433C95.1893 18.4133 95.7505 18.1533 96.4306 18.1519C97.1101 18.1533 97.6726 18.4133 98.1412 18.9433C98.6077 19.4735 98.8405 20.1403 98.8413 20.972C98.8405 21.8038 98.6077 22.4707 98.1412 23.0008C97.6726 23.5309 97.1101 23.7908 96.4306 23.7922C95.7505 23.7908 95.1893 23.5309 94.7194 23.0008L94.6414 23.0872ZM98.8452 23.704L98.7667 23.6187C98.1374 24.3401 97.3678 24.6966 96.4306 24.698C95.4929 24.6965 94.7233 24.3401 94.0951 23.6187L94.0922 23.6148L94.0951 23.6187C93.4671 22.8947 93.1572 22.0217 93.1563 20.972C93.1572 19.9224 93.4671 19.0494 94.0951 18.3255C94.7233 17.604 95.4929 17.2471 96.4306 17.2457C97.3617 17.2471 98.1296 17.6055 98.7624 18.3307C99.3927 19.058 99.7044 19.9296 99.7057 20.972C99.7044 22.0217 99.3936 22.8947 98.7667 23.6187L98.8452 23.704L98.9241 23.7893C99.5895 23.0247 99.926 22.0763 99.9252 20.972C99.926 19.8741 99.5882 18.9276 98.9197 18.1596C98.251 17.3886 97.4132 16.9987 96.4306 17C95.4428 16.9987 94.6024 17.3867 93.9379 18.1548V18.1542C93.2712 18.9194 92.9359 19.8678 92.9368 20.972C92.9359 22.0763 93.2712 23.0247 93.9379 23.7898L93.9408 23.7933L93.9379 23.7893C94.6024 24.5574 95.4428 24.9446 96.4306 24.9436C97.4179 24.9446 98.2582 24.5574 98.9241 23.7893L98.8452 23.704ZM101.003 24.6563V17.2878H102.033L105.233 23.0199H105.27L105.233 21.5999V17.2878H106.08V24.6562H105.197L101.849 18.6463H101.812L101.849 20.0668V24.6562H101.003" fill="white"/>
<path d="M101.003 24.6543H101.113V17.4087H101.972L105.172 23.1407H105.382L105.343 21.5961V17.4087H105.97V24.5314H105.258L101.909 18.5216H101.699L101.739 20.0668V24.5314H101.003V24.6542H101.113H101.003V24.777H101.958V20.0629L101.922 18.6411L101.812 18.6444V18.7672H101.848V18.6444L101.755 18.7097L105.136 24.777H106.19V17.1631H105.124V21.5994L105.16 23.0213L105.27 23.0179V22.8951H105.233V23.0179L105.326 22.9528L102.094 17.1631H100.893V24.777H101.003V24.6542L101.003 24.6543ZM135.424 45.5312H137.472V30.179H135.423L135.424 45.5312ZM153.87 35.7093L151.523 42.3652H151.452L149.016 35.7092H146.81L150.463 45.0121L148.38 50.1868H150.517L156.148 35.7092L153.87 35.7093ZM142.256 43.7875C141.584 43.7875 140.649 43.4123 140.649 42.4837C140.649 41.2987 141.815 40.8445 142.82 40.8445C143.721 40.8445 144.144 41.0617 144.691 41.3583C144.532 42.7801 143.438 43.7875 142.256 43.7875ZM142.503 35.3734C141.02 35.3734 139.484 36.1044 138.849 37.724L140.667 38.573C141.055 37.724 141.778 37.4471 142.538 37.4471C143.597 37.4471 144.674 38.1586 144.691 39.4226V39.5805C144.32 39.3434 143.527 38.988 142.555 38.988C140.596 38.988 138.601 40.1925 138.601 42.4443C138.601 44.4984 140.208 45.8219 142.008 45.8219C143.385 45.8219 144.144 45.1306 144.621 44.3209H144.691V45.5058H146.668V39.6197C146.668 36.8946 144.851 35.3734 142.503 35.3734ZM129.846 37.5781H126.933V32.3157H129.846C131.377 32.3157 132.246 33.7342 132.246 34.9468C132.246 36.1366 131.377 37.5781 129.846 37.5781ZM129.793 30.179H124.886V45.5312H126.933V39.7147H129.793C132.063 39.7147 134.294 37.876 134.294 34.9468C134.294 32.0178 132.063 30.179 129.793 30.179ZM103.033 43.7903C101.618 43.7903 100.434 42.4649 100.434 40.6444C100.434 38.8048 101.618 37.4592 103.033 37.4592C104.43 37.4592 105.526 38.8047 105.526 40.6444C105.526 42.4649 104.43 43.7903 103.033 43.7903H103.033ZM105.385 36.5689H105.314C104.854 35.9557 103.97 35.4017 102.856 35.4017C100.522 35.4017 98.3825 37.6966 98.3825 40.6444C98.3825 43.5726 100.522 45.8478 102.856 45.8478C103.97 45.8478 104.854 45.2937 105.314 44.661H105.385V45.4127C105.385 47.4113 104.43 48.4795 102.892 48.4795C101.636 48.4795 100.858 47.4702 100.539 46.6196L98.7539 47.4505C99.2666 48.8354 100.628 50.537 102.892 50.537C105.296 50.537 107.33 48.9539 107.33 45.0961V35.7183H105.385V36.5689ZM108.744 45.5312H110.795V30.1785H108.744V45.5312ZM113.819 40.4665C113.766 38.4483 115.216 37.4198 116.259 37.4198C117.073 37.4198 117.762 37.8745 117.992 38.528L113.819 40.4665ZM120.185 38.7255C119.796 37.5579 118.611 35.4017 116.188 35.4017C113.784 35.4017 111.786 37.5186 111.786 40.6248C111.786 43.553 113.766 45.8478 116.418 45.8478C118.558 45.8478 119.796 44.3837 120.309 43.5331L118.717 42.3459C118.187 43.2166 117.462 43.7903 116.418 43.7903C115.375 43.7903 114.633 43.256 114.155 42.2077L120.397 39.319L120.185 38.7255ZM70.4558 37.0043V39.2201H75.1946C75.0531 40.4665 74.6818 41.3765 74.1158 42.0096C73.4265 42.7815 72.3478 43.632 70.4558 43.632C67.5381 43.632 65.2573 41.0008 65.2573 37.7363C65.2573 34.472 67.5381 31.8404 70.4558 31.8404C72.0296 31.8404 73.1786 32.533 74.0275 33.4233L75.4244 31.8605C74.2398 30.594 72.6659 29.6246 70.4558 29.6246C66.4595 29.6246 63.0999 33.265 63.0999 37.7363C63.0999 42.2077 66.4595 45.8478 70.4558 45.8478C72.6132 45.8478 74.2398 45.0568 75.5127 43.5726C76.8213 42.1085 77.2282 40.051 77.2282 38.3893C77.2282 37.8745 77.1929 37.4001 77.1218 37.0043H70.4558ZM82.6157 43.7903C81.2008 43.7903 79.9806 42.4845 79.9806 40.6248C79.9806 38.7452 81.2008 37.4592 82.6157 37.4592C84.03 37.4592 85.2502 38.7452 85.2502 40.6248C85.2502 42.4846 84.03 43.7903 82.6157 43.7903ZM82.6157 35.4017C80.0338 35.4017 77.9295 37.5977 77.9295 40.6248C77.9295 43.632 80.0338 45.8478 82.6157 45.8478C85.1971 45.8478 87.3013 43.632 87.3013 40.6248C87.3013 37.5977 85.1971 35.4017 82.6157 35.4017ZM92.8375 43.7903C91.4233 43.7903 90.203 42.4845 90.203 40.6248C90.203 38.7452 91.4233 37.4592 92.8376 37.4592C94.252 37.4592 95.4722 38.7452 95.4722 40.6248C95.4722 42.4846 94.252 43.7903 92.8376 43.7903H92.8375ZM92.8375 35.4017C90.2558 35.4017 88.152 37.5977 88.152 40.6248C88.152 43.632 90.2558 45.8478 92.8376 45.8478C95.4191 45.8478 97.5234 43.632 97.5234 40.6248C97.5234 37.5977 95.4191 35.4017 92.8376 35.4017H92.8375Z" fill="white"/>
<path d="M29.5884 18.0373C29.2201 18.4091 29.0002 19.0293 29.0002 19.8526V19.6665V46.8324V46.6535C29.0002 47.4138 29.1888 48.0009 29.5082 48.379L29.5897 48.4663V48.4667C29.8482 48.7277 30.1797 48.8663 30.5596 48.8659C30.9308 48.8659 31.3484 48.7335 31.7892 48.4539L47.7207 38.3257L53.193 34.8464C53.888 34.4046 54.2782 33.8347 54.3434 33.2542V33.2518C54.2782 32.67 53.888 32.1005 53.1931 31.6587L47.7202 28.1798L31.7892 18.0517C31.3475 17.7716 30.9296 17.6387 30.5574 17.6387C30.178 17.6387 29.8469 17.7768 29.5885 18.0373H29.5884Z" fill="#00C1FF"/>
<path d="M29.5898 48.4658L29.5082 48.3785C29.1888 48.0004 29.0002 47.4133 29.0002 46.653V46.8319V19.6727V19.8521C29.0002 19.0288 29.2201 18.4086 29.5884 18.0368L43.1871 33.2518L29.5898 48.4658Z" fill="url(#paint0_linear_1819_239)"/>
<path d="M47.7203 38.3262L43.1868 33.2528L47.7199 28.1803L53.1927 31.6592C53.8876 32.101 54.2778 32.6704 54.343 33.2523V33.2546C54.2778 33.8352 53.8876 34.4051 53.1927 34.8468L47.7203 38.3261" fill="url(#paint1_linear_1819_239)"/>
<path d="M30.5589 48.8662C30.179 48.8666 29.8476 48.728 29.5891 48.467V48.4666L43.1865 33.2526L47.72 38.3259L31.7885 48.4541C31.3477 48.7338 30.9301 48.8662 30.5589 48.8662Z" fill="url(#paint2_linear_1819_239)"/>
<path d="M43.1859 33.2529L29.5872 18.0379C29.8457 17.7774 30.1767 17.6393 30.5561 17.6393C30.9283 17.6393 31.3463 17.7721 31.7879 18.0523L47.719 28.1804L43.1859 33.2529" fill="url(#paint3_linear_1819_239)"/>
<path d="M30.5588 49.0479C30.179 49.0479 29.8471 48.9092 29.5886 48.6483L29.5881 48.6487C29.587 48.6475 29.5859 48.6464 29.5847 48.6454L29.514 48.5681C29.5118 48.5657 29.5097 48.5629 29.5071 48.5601L29.5886 48.4688C29.8471 48.7298 30.1785 48.8684 30.5585 48.8679C30.9296 48.8679 31.3473 48.7356 31.788 48.4559L47.7195 38.3278L47.8216 38.442L47.7182 38.5077L31.788 48.6353C31.3863 48.8901 31.0042 49.0229 30.6591 49.045C30.6257 49.0469 30.5923 49.0478 30.5588 49.0478" fill="url(#paint4_linear_1819_239)"/>
<path d="M29.5082 48.5576C29.1888 48.1796 29.0002 47.5929 29.0002 46.8321V46.6532C29.0002 47.4134 29.1888 48.0006 29.5082 48.3787L29.5897 48.466L29.5082 48.5576Z" fill="url(#paint5_linear_1819_239)"/>
<path d="M47.822 38.4394L47.72 38.3252L53.1923 34.8459C53.8873 34.4042 54.2775 33.8342 54.3427 33.2537C54.3427 33.4667 54.3002 33.6797 54.2158 33.887C54.0456 34.3048 53.7044 34.6996 53.1924 35.0253L47.822 38.4395" fill="url(#paint6_linear_1819_239)"/>
<path d="M54.3432 33.2529C54.2779 32.671 53.8878 32.1016 53.1928 31.6598L47.72 28.1809L47.822 28.0667H47.8225L53.1928 31.4808C53.959 31.9682 54.3427 32.6105 54.3432 33.2529Z" fill="url(#paint7_linear_1819_239)"/>
<path d="M29.0002 19.8525V19.6649C29.0002 19.5972 29.0019 19.531 29.005 19.4668V19.4639C29.005 19.463 29.005 19.4621 29.0053 19.4611V19.4538C29.0383 18.799 29.2201 18.2882 29.5082 17.9471L29.5884 18.0372C29.2201 18.4091 29.0002 19.0293 29.0002 19.8525Z" fill="url(#paint8_linear_1819_239)"/>
<path d="M47.719 28.1797L31.788 18.0514C31.3464 17.7713 30.9284 17.6385 30.5562 17.6385C30.1768 17.6385 29.8458 17.7766 29.5873 18.0371L29.5071 17.947C29.5321 17.9173 29.5582 17.8886 29.5851 17.8611C29.586 17.8601 29.5873 17.8591 29.5882 17.8582C29.8446 17.5997 30.1721 17.4615 30.5481 17.4591H30.5562C30.9284 17.4591 31.3464 17.592 31.788 17.8722L47.8216 28.0651L47.8211 28.0654L47.719 28.1797Z" fill="url(#paint9_linear_1819_239)"/>
<defs>
<linearGradient id="paint0_linear_1819_239" x1="37.6906" y1="19.3856" x2="24.6771" y2="31.054" gradientUnits="userSpaceOnUse">
<stop stop-color="#00A0FF"/>
<stop offset="0.00657" stop-color="#00A1FF"/>
<stop offset="0.2601" stop-color="#00BEFF"/>
<stop offset="0.5122" stop-color="#00D2FF"/>
<stop offset="0.7604" stop-color="#00DFFF"/>
<stop offset="1" stop-color="#00E3FF"/>
</linearGradient>
<linearGradient id="paint1_linear_1819_239" x1="55.1898" y1="33.1652" x2="28.6319" y2="33.1652" gradientUnits="userSpaceOnUse">
<stop stop-color="#FFE000"/>
<stop offset="0.4087" stop-color="#FFBD00"/>
<stop offset="0.7754" stop-color="#FFA500"/>
<stop offset="1" stop-color="#FF9C00"/>
</linearGradient>
<linearGradient id="paint2_linear_1819_239" x1="45.3131" y1="38.0762" x2="23.2784" y2="57.6889" gradientUnits="userSpaceOnUse">
<stop stop-color="#FF3A44"/>
<stop offset="1" stop-color="#C31162"/>
</linearGradient>
<linearGradient id="paint3_linear_1819_239" x1="26.0824" y1="15.7822" x2="35.9044" y2="24.5381" gradientUnits="userSpaceOnUse">
<stop stop-color="#32A071"/>
<stop offset="0.0685" stop-color="#2DA771"/>
<stop offset="0.4762" stop-color="#15CF74"/>
<stop offset="0.8009" stop-color="#06E775"/>
<stop offset="1" stop-color="#00F076"/>
</linearGradient>
<linearGradient id="paint4_linear_1819_239" x1="45.3027" y1="41.5971" x2="27.642" y2="57.4324" gradientUnits="userSpaceOnUse">
<stop stop-color="#CC2E36"/>
<stop offset="1" stop-color="#9C0E4E"/>
</linearGradient>
<linearGradient id="paint5_linear_1819_239" x1="30.8118" y1="19.3858" x2="19.347" y2="29.6657" gradientUnits="userSpaceOnUse">
<stop stop-color="#008DE0"/>
<stop offset="0.00657" stop-color="#008DE0"/>
<stop offset="0.2601" stop-color="#00A7E0"/>
<stop offset="0.5122" stop-color="#00B8E0"/>
<stop offset="0.7604" stop-color="#00C4E0"/>
<stop offset="1" stop-color="#00C7E0"/>
</linearGradient>
<linearGradient id="paint6_linear_1819_239" x1="55.1895" y1="33.2526" x2="28.6315" y2="33.2526" gradientUnits="userSpaceOnUse">
<stop stop-color="#E0C500"/>
<stop offset="0.4087" stop-color="#E0A600"/>
<stop offset="0.7754" stop-color="#E09100"/>
<stop offset="1" stop-color="#E08900"/>
</linearGradient>
<linearGradient id="paint7_linear_1819_239" x1="55.19" y1="33.2541" x2="28.6321" y2="33.2541" gradientUnits="userSpaceOnUse">
<stop stop-color="#FFE840"/>
<stop offset="0.4087" stop-color="#FFCE40"/>
<stop offset="0.7754" stop-color="#FFBC40"/>
<stop offset="1" stop-color="#FFB540"/>
</linearGradient>
<linearGradient id="paint8_linear_1819_239" x1="30.8006" y1="19.407" x2="19.8116" y2="28.8332" gradientUnits="userSpaceOnUse">
<stop stop-color="#40B8FF"/>
<stop offset="0.00657" stop-color="#40B9FF"/>
<stop offset="0.2601" stop-color="#40CEFF"/>
<stop offset="0.5122" stop-color="#40DDFF"/>
<stop offset="0.7604" stop-color="#40E7FF"/>
<stop offset="1" stop-color="#40EAFF"/>
</linearGradient>
<linearGradient id="paint9_linear_1819_239" x1="26.0627" y1="18.9991" x2="33.949" y2="26.0704" gradientUnits="userSpaceOnUse">
<stop stop-color="#65B895"/>
<stop offset="0.0685" stop-color="#62BD95"/>
<stop offset="0.4762" stop-color="#50DB97"/>
<stop offset="0.8009" stop-color="#44ED98"/>
<stop offset="1" stop-color="#40F498"/>
</linearGradient>
</defs>
</svg>
