<svg width="185" height="53" viewBox="0 0 185 53" fill="none" xmlns="http://www.w3.org/2000/svg">
<path d="M4.80532 52.2744C3.76735 52.2744 2.85466 52.2029 2.06724 52.0597C1.27982 51.9523 0.599773 51.827 0.0271029 51.6839V44.9192C0.599773 45.0624 1.20823 45.1876 1.85249 45.295C2.46095 45.4024 3.1231 45.4561 3.83894 45.4561C4.76953 45.4561 5.61063 45.2771 6.36226 44.9192C7.14968 44.5613 7.75815 43.8812 8.18765 42.8791C8.61715 41.8769 8.8319 40.4452 8.8319 38.584V2.66691H16.9388V38.5304C16.9388 41.8232 16.4198 44.4718 15.3818 46.4762C14.3796 48.5163 12.9659 49.9838 11.1405 50.8786C9.31509 51.8091 7.20337 52.2744 4.80532 52.2744ZM52.8588 11.6865V41H46.7384L45.6647 37.2419H45.2352C44.6267 38.244 43.8393 39.0672 42.8729 39.7115C41.9423 40.32 40.9044 40.7674 39.759 41.0537C38.6137 41.3758 37.4325 41.5369 36.2156 41.5369C34.1397 41.5369 32.3143 41.1611 30.7395 40.4094C29.1646 39.6578 27.9477 38.4946 27.0887 36.9197C26.2297 35.3449 25.8002 33.3047 25.8002 30.7993V11.6865H33.7997V28.8129C33.7997 30.8888 34.1755 32.4636 34.9271 33.5374C35.6787 34.6112 36.8778 35.148 38.5242 35.148C40.1706 35.148 41.4412 34.7722 42.336 34.0206C43.2666 33.269 43.9109 32.1773 44.2688 30.7456C44.6625 29.314 44.8594 27.5602 44.8594 25.4842V11.6865H52.8588ZM77.6211 11.1496C78.0148 11.1496 78.4801 11.1675 79.017 11.2033C79.5538 11.2391 79.9833 11.2928 80.3055 11.3643L79.7149 18.8806C79.4644 18.809 79.0885 18.7554 78.5875 18.7196C78.1222 18.648 77.7106 18.6122 77.3526 18.6122C76.3147 18.6122 75.3125 18.7554 74.3461 19.0417C73.3797 19.2922 72.5028 19.7038 71.7154 20.2765C70.9638 20.8492 70.3553 21.6187 69.89 22.5851C69.4605 23.5157 69.2458 24.6789 69.2458 26.0748V41H61.2463V11.6865H67.313L68.4941 16.6257H68.87C69.4426 15.6236 70.1585 14.7109 71.0175 13.8877C71.8765 13.0644 72.8608 12.4023 73.9703 11.9012C75.1156 11.4001 76.3326 11.1496 77.6211 11.1496ZM93.6255 11.6865V41H85.626V11.6865H93.6255ZM89.6526 0.197271C90.8337 0.197271 91.8538 0.483607 92.7128 1.05628C93.5718 1.59316 94.0013 2.61322 94.0013 4.11648C94.0013 5.58395 93.5718 6.60402 92.7128 7.17668C91.8538 7.74936 90.8337 8.03569 89.6526 8.03569C88.4357 8.03569 87.3977 7.74936 86.5387 7.17668C85.7155 6.60402 85.3039 5.58395 85.3039 4.11648C85.3039 2.61322 85.7155 1.59316 86.5387 1.05628C87.3977 0.483607 88.4357 0.197271 89.6526 0.197271ZM122.439 32.3026C122.439 34.2711 121.974 35.9533 121.043 37.3492C120.113 38.7093 118.717 39.7473 116.856 40.4631C114.994 41.179 112.686 41.5369 109.93 41.5369C107.89 41.5369 106.136 41.3937 104.668 41.1074C103.201 40.8568 101.733 40.4273 100.266 39.8189V33.2153C101.841 33.9311 103.541 34.5217 105.366 34.987C107.192 35.4523 108.802 35.6849 110.198 35.6849C111.773 35.6849 112.883 35.4523 113.527 34.987C114.207 34.5217 114.547 33.9132 114.547 33.1616C114.547 32.6605 114.404 32.2131 114.117 31.8194C113.867 31.4257 113.294 30.9783 112.399 30.4772C111.505 29.9761 110.109 29.3319 108.212 28.5444C106.386 27.757 104.883 26.9875 103.702 26.2359C102.521 25.4484 101.644 24.5178 101.071 23.4441C100.499 22.3345 100.212 20.9566 100.212 19.3101C100.212 16.5899 101.268 14.5498 103.38 13.1897C105.492 11.8296 108.301 11.1496 111.809 11.1496C113.634 11.1496 115.37 11.3285 117.017 11.6865C118.663 12.0444 120.363 12.6349 122.117 13.4582L119.701 19.2028C118.735 18.7733 117.804 18.3974 116.909 18.0753C116.014 17.7532 115.138 17.5026 114.279 17.3237C113.455 17.1447 112.596 17.0552 111.701 17.0552C110.52 17.0552 109.626 17.2163 109.017 17.5384C108.444 17.8606 108.158 18.3437 108.158 18.988C108.158 19.4533 108.301 19.8828 108.588 20.2765C108.91 20.6344 109.5 21.0281 110.359 21.4576C111.254 21.8871 112.561 22.4598 114.279 23.1757C115.961 23.8557 117.41 24.5715 118.627 25.3232C119.844 26.039 120.775 26.9517 121.419 28.0612C122.099 29.135 122.439 30.5488 122.439 32.3026ZM151.381 41H129.315V2.66691H151.381V9.3242H137.422V17.7532H150.414V24.4105H137.422V34.289H151.381V41ZM168.001 41.5369C164.744 41.5369 162.077 40.2663 160.001 37.725C157.961 35.148 156.941 31.372 156.941 26.3969C156.941 21.3861 157.979 17.5921 160.055 15.0151C162.131 12.4381 164.851 11.1496 168.215 11.1496C169.611 11.1496 170.846 11.3464 171.92 11.7401C172.994 12.0981 173.906 12.5992 174.658 13.2434C175.445 13.8877 176.108 14.6214 176.644 15.4446H176.913C176.806 14.8719 176.68 14.0487 176.537 12.975C176.394 11.8654 176.322 10.738 176.322 9.59264V0.197271H184.322V41H178.201L176.644 37.1882H176.322C175.821 37.9756 175.177 38.7093 174.39 39.3894C173.638 40.0336 172.743 40.5526 171.705 40.9463C170.667 41.34 169.432 41.5369 168.001 41.5369ZM170.792 35.148C173.012 35.148 174.569 34.5038 175.463 33.2153C176.358 31.891 176.823 29.9224 176.859 27.3096V26.4506C176.859 23.5873 176.412 21.404 175.517 19.9007C174.658 18.3974 173.047 17.6458 170.685 17.6458C168.931 17.6458 167.553 18.4153 166.551 19.9544C165.549 21.4576 165.048 23.6409 165.048 26.5043C165.048 29.3676 165.549 31.5331 166.551 33.0005C167.553 34.4322 168.967 35.148 170.792 35.148Z" fill="url(#paint0_linear_1819_231)"/>
<defs>
<linearGradient id="paint0_linear_1819_231" x1="97.0606" y1="0.284615" x2="90.9213" y2="50.066" gradientUnits="userSpaceOnUse">
<stop stop-color="#B7700A"/>
<stop offset="0.489583" stop-color="#EDB96E"/>
<stop offset="1" stop-color="#B7700A"/>
</linearGradient>
</defs>
</svg>
