<svg width="11" height="12" viewBox="0 0 11 12" fill="none" xmlns="http://www.w3.org/2000/svg">
<path d="M8.87692 9.95899C8.87692 10.1661 8.70902 10.334 8.50192 10.334H2.03141C1.8243 10.334 1.65641 10.1661 1.65641 9.95899V3.46371C1.65641 3.2566 1.8243 3.08871 2.03141 3.08871H5.27286C5.4507 3.08871 5.59487 2.94454 5.59487 2.7667C5.59487 2.58885 5.4507 2.44468 5.27285 2.44468H1.375C1.16789 2.44468 1 2.61258 1 2.81968V10.603C1 10.8101 1.16789 10.978 1.375 10.978H9.15833C9.36543 10.978 9.53333 10.8101 9.53333 10.603V6.79804C9.53333 6.61678 9.38638 6.46984 9.20512 6.46984C9.02386 6.46984 8.87692 6.61678 8.87692 6.79805V9.95899Z" fill="#B7700A"/>
<path d="M7.0234 1.02246C6.83937 1.02246 6.69019 1.17164 6.69019 1.35567C6.69019 1.5397 6.83937 1.68888 7.0234 1.68888H8.39813C8.7217 1.68888 8.89338 2.07118 8.67841 2.31302L4.74042 6.74328C4.63499 6.86189 4.63499 7.04063 4.74042 7.15924C4.86495 7.29933 5.08385 7.29933 5.20837 7.15924L8.99678 2.89729C9.22587 2.63957 9.65206 2.80161 9.65206 3.14643V4.7248C9.65206 4.88838 9.78467 5.02099 9.94825 5.02099C10.1118 5.02099 10.2444 4.88838 10.2444 4.7248V1.39746C10.2444 1.19035 10.0765 1.02246 9.86943 1.02246H7.0234Z" fill="#B7700A"/>
<path d="M8.87692 9.95899C8.87692 10.1661 8.70902 10.334 8.50192 10.334H2.03141C1.8243 10.334 1.65641 10.1661 1.65641 9.95899V3.46371C1.65641 3.2566 1.8243 3.08871 2.03141 3.08871H5.27286C5.4507 3.08871 5.59487 2.94454 5.59487 2.7667C5.59487 2.58885 5.4507 2.44468 5.27285 2.44468H1.375C1.16789 2.44468 1 2.61258 1 2.81968V10.603C1 10.8101 1.16789 10.978 1.375 10.978H9.15833C9.36543 10.978 9.53333 10.8101 9.53333 10.603V6.79804C9.53333 6.61678 9.38638 6.46984 9.20512 6.46984C9.02386 6.46984 8.87692 6.61678 8.87692 6.79805V9.95899Z" stroke="#B7700A" stroke-width="0.5"/>
<path d="M7.0234 1.02246C6.83937 1.02246 6.69019 1.17164 6.69019 1.35567C6.69019 1.5397 6.83937 1.68888 7.0234 1.68888H8.39813C8.7217 1.68888 8.89338 2.07118 8.67841 2.31302L4.74042 6.74328C4.63499 6.86189 4.63499 7.04063 4.74042 7.15924C4.86495 7.29933 5.08385 7.29933 5.20837 7.15924L8.99678 2.89729C9.22587 2.63957 9.65206 2.80161 9.65206 3.14643V4.7248C9.65206 4.88838 9.78467 5.02099 9.94825 5.02099C10.1118 5.02099 10.2444 4.88838 10.2444 4.7248V1.39746C10.2444 1.19035 10.0765 1.02246 9.86943 1.02246H7.0234Z" stroke="#B7700A" stroke-width="0.5"/>
</svg>
